<svg viewBox="0 0 260 247" fill="none" xmlns="http://www.w3.org/2000/svg">
  <path opacity="0.999" fill-rule="evenodd" clip-rule="evenodd" d="M97.3819 0C119.118 0 140.854 0 162.59 0C158.239 14.011 153.868 28.0171 149.476 42.0183C148.209 46.9617 146.259 51.6006 143.626 55.9352C138.736 63.8785 132.414 70.38 124.662 75.4389C119.63 78.6913 114.284 81.3007 108.623 83.2672C96.6536 87.3613 84.427 90.3828 71.9428 92.3332C53.9047 95.126 35.762 96.5417 17.5148 96.5819C25.9856 97.9006 34.3558 99.7072 42.6253 102.001C51.6752 104.556 60.396 107.968 68.7875 112.238C73.5079 114.818 77.9338 117.829 82.0658 121.271C83.0078 122.118 83.9064 123.011 84.761 123.947C84.7393 123.969 84.7169 123.992 84.6952 124.014C89.8146 129.11 94.2076 134.764 97.8749 140.975C99.329 143.898 100.446 146.954 101.227 150.142C103.332 158.764 104.055 167.506 103.397 176.37C102.99 182.33 102.114 188.218 100.767 194.034C100.092 194.122 99.402 194.167 98.6966 194.167C82.6522 193.742 67.3578 190.095 52.8141 183.228C30.4478 172.238 15.0331 154.853 6.57001 131.073C3.14572 121.229 0.998397 111.104 0.128048 100.697C-0.380841 91.2901 0.62709 82.0568 3.15183 72.9968C3.95647 70.5111 4.72334 68.0134 5.45253 65.5031C10.9898 49.2369 20.0501 35.3981 32.6337 23.9866C44.3008 13.7774 57.6887 6.86357 72.7973 3.24504C80.8951 1.32826 89.0902 0.246556 97.3819 0Z" fill="#F5F0E1"/>
  <path opacity="0.999" fill-rule="evenodd" clip-rule="evenodd" d="M158.318 52.7236C174.698 52.8352 190.342 56.3256 205.252 63.1948C228.443 74.2881 244.296 92.1412 252.811 116.755C256.21 126.759 258.27 137.041 258.99 147.599C259.325 156.532 258.296 165.297 255.9 173.894C255.096 176.38 254.329 178.878 253.6 181.388C248.062 197.654 239.002 211.493 226.419 222.904C214.439 233.373 200.678 240.376 185.137 243.914C177.41 245.669 169.587 246.65 161.67 246.858C139.934 246.891 118.198 246.902 96.4619 246.891C100.813 232.88 105.184 218.874 109.576 204.873C110.843 199.93 112.794 195.29 115.426 190.956C120.316 183.012 126.638 176.511 134.391 171.452C139.481 168.16 144.893 165.527 150.627 163.557C161.325 159.909 172.236 157.121 183.363 155.193C199.817 152.416 216.382 150.832 233.058 150.443C235.884 150.383 238.711 150.339 241.538 150.309C231.447 148.777 221.521 146.502 211.76 143.485C204.039 141.05 196.59 137.949 189.41 134.184C185.471 131.947 181.725 129.426 178.17 126.624C176.794 125.492 175.501 124.265 174.291 122.944C174.313 122.922 174.335 122.899 174.357 122.877C169.077 117.617 164.574 111.763 160.849 105.313C158.838 100.823 157.435 96.139 156.642 91.2627C155.119 81.9558 155.032 72.6335 156.379 63.2951C156.863 59.7389 157.509 56.2152 158.318 52.7236Z" fill="#F5F0E1"/>
</svg>
